<svg xmlns="http://www.w3.org/2000/svg" xmlns:xlink="http://www.w3.org/1999/xlink" viewBox="0 0 3650 2433.33"><defs><style>.cls-1{fill:none;}.cls-2{opacity:0.6;}.cls-3{clip-path:url(#clip-path);}</style><clipPath id="clip-path" transform="translate(1159.55 394.05)"><path id="SVGID" class="cls-1" d="M1309.07,699.86l-2.22-27.59-4.56-38.3-2.71-17.12-3.69-12.2-3-8.37L1288,588.4l-5.42-8.38-6.9-9.85-9.36-11.33L1255,546l-10.84-8.38-10.34-3.94-8.07-1.66-7.57-1.66-9.8-.56-12.56.19-7,.18-6.46-12.93-4.07-1.48-4.25.93-5.54.74L1156.16,514l-19.39-3.88-11.33-2-16.75-3-15.28-1.48-7.88-7.88L1070.26,484l-10.35-4.44-9.85-3.45-8.87-7.88-7.39-11.33-14.28-14.78-16.26-9.85-4.93-3.45-4.43-29.06L990.45,379l-2-11.57,4.16-8.41,2.4-8.87.28-7.94L994.64,329l-1.11-11.45-1.48-10.72,3.7,1.85,6.28.92,3.88-1.1,3.32-3.88,3-5.73,1.48-4.25,1.48-6.65,2-11.64,2-12,.74-6.65-.92-6.83-.74-9.24V231.48l-.19-6.28-2-6.47-3.88-8.13-3.33-4.43-5.54-3.51-3.14-1.48-3.14-.37-3.51,1.85-4.06,2.22-.56-10.16-.74-8.5-4.8-8.13-.92-7.94v-9.06l-.93-10.16-2.21-11.08-4.07-8.5-7.39-11.27-7.76-11.27-9.23-10.53-12.57-9.6-11.63-9.43-12.38-9.79-7.76-4.62L897.1,59.3l-8.32-.55L881,57.82h-7.57l-7.57-3.69-7.39-2.22-3.33-4.8-7.39,1.11-5.54-1.67-4.43.56-5,2.77-5.36-.55h-9.61l-5,2.4s-3.33,3.69-3.88,3.69S797,56,797,56l-6.47.55-7.94,1.66-4.8,3.14-4.07,5-1.48,3.33s-6.28,2.77-8.13,3.69-8.86,5.91-8.86,5.91l-9.61,8.5-1.85,3.33-7.94,3-5.36,6.28-3.14,3.14-4.43-11.26L717,83.32l-5.36-5L704,71.86l-6.83-10.34s-9.05-10.9-9.61-10.9-4.25-7.76-4.25-7.76L676,36.39l-7-3.32-6.46-2-9.24-7.76-6.83-4.44-7.21-.55L634.58,22,631.07,9.35,626.27,3l-6.65-3L613,2,605,.92l-7.39.74L588.4,0l-9.61,1.11L571,3.51l-5.54,4.06-5.17,2-5.36.92L548.68,7l-5.91-1.29L536.3,7.57l-4,1.78-1.84,3L526,15.26l-6.65,3-5.17,3.69-3,2.59-5.54,2.59-5.91,1.47-8.13,4.81L485,37.43,479.1,41.5l-7.39,4.8-4.43,3-3.7,4.81L461,58.12l-1.85,5.17-3.7,2.22-4.06,3.7-3.7,3.69-4.8,1.85L437,78.07l-1.85,4.44-2.22,5.17-2.21,5.17-1.48,5.55-1.85,4.43-2.58,5.91-2.22,7.39L420,122.41l-3.69,6.28v6.65l-2.59,4.07-5.54,4.43-2.22,5.54L403,154.56v5.91l4.06,1.85,2.22,1.84v8.5l1.11,3,3.32,4.43,1.48,3,.74,4.06-.74,4.06.37,6.66-.74,5.54.37,4.06h-4.8l-5.18,1.85-4.43,3.69-3,3.33-2.95,5.17-2.59,6.28-1.48,6.65L389,239.54v4.06l1.47,4.07,1.85,3.69,1.48,3.69,1.48,4.07,2.21,3.69,1.85,4.44.74,4.8,1.11,3.33,2.22,3.32,2.58,2.59,1.11,2.95,1.48,7.76,2.59,5.91.73,6.65-.37,7-1.1,8.86.74,8.13.73,7.39,1.48,7.39.74,6.28-1.48,2.59-5.54,4.43-2.95,5.54,2.21,3.33.74,4.06-2.59,4.07,1.11,7.76,2.59,4.43,1.85,4.06-4.81,12.57-7,17-5.91,14.78L386,450.14H340.54l-10,2.22-7.76,3.32-4.43,3.7L316.16,466l-3,5.17-5.54,7-6.28,6.65L295.84,490h-6.28l-5.92,5.55L280,500l-2.22,3.33-11.08,2.95-12.19,4.07-14,5.17-8.5,3.32-9.61,1.85-8.13,1.85L205,524.77l-9.24,3-8.13,3.33-10,3-4.06,1.85-5.91,2.22h-7l-5.54,2.21-7.39,3-4.81,1.85h-8.13l-4.8,3.69-3.69,3-6.65,2.58-8.13,2.59-6.28,3.33-9.13,6.35-8.12,5.17-7,4.43-5.55,4.44-4.06,4.8-1.85,3.7-4.06,3.69-5.17,5.54-6.29,7.76-4.8,7.76-4.43,8.5L41,627.93l-3.69,5.17-3,4.81-4.06,7-5.54,8.86-3.33,6.66-3,9.23-3.32,8.87-1.48,8.87v3.69L10,697.39,7,704l-1.85,8.13-1.48,10v5.91l-1.84,6.28L0,741.73H1310.18v-14.9ZM700.16,283l3-4.06,1-1.34a3.16,3.16,0,0,1,4.64-.38l8.56,7.91,1.47,5.63-8.49,4.62-1.67-2.59-2.4-2.95-3.6-1.67h-3.6Zm11,277.1-6,4.16-4.62,2.31-1.66.09-3.51-1.38-5.45-1.3-6.1,0L680,566.31l-2.91.88-5,.14-3.24-.69-2.77.41-2.54,3.24s-2.31.87-2.49,1-4.16.83-4.3.83-4.29,1.67-4.29,1.67l-5.78,2.91-5,1.89-1.57-.56-1.75-.92-3.05-.37-3.14.19-2.68-.28-.83-.56-2.59-1-1.29-.83-1.2-.46-4.53-.19-2.31-.55-.65-1.3-1.29-1.94-.37-1.75-.37-3.7-.27-2.86-.56-2.68-1.29-2.49-1.73-1.85-2.09-1.72-1.6-1.73-2.22-.86-2.46-.49-3.08.37-3.08.74-2.22.61-.49-.74-2.46-2.46L586.66,544l.12-5.42L586,537l-.37-4.19-1.23-4.68-2-5.91-2.09-5.05-1.48-3.69-2.46-4.68-1.73-3.57,1.11-2.71,2.1-5.55,2.7-9.36,2.22-7.38,2.34-7.52,1.6-.86,3.45-3.2,2.59-3.08,6-4.31,5-3.57,6.53-5.67,4.06-2.95,6.78-2.71,7.39-3,4.68-3.57,4.18-2.71,2.28-1.37,4-2.86,2.68-3.7,2.36-5.45,1.1-5.82,3.33-6.33,1.91-2.86,2.46-3.45,2.9-3.88,2.46-4.12,2.22-5.55,1.47-5.66,1.36-5.17.55-5.15,2.77-2.21,4.44-4.25,2.12-2.22,3.7-2.95,5.54-5.18,4.62-5.82,3.88-4.52,2.95-3.6,4.25-5,2.87-4.34,2.67-3.79,1.48-4.62.46-4.16.37-4.34.37-1,1,.27,1.2,3,1.39,2.49,4.61,4.71-2.58,4.62-1.94,4.53.27,7.57,1,8.41-2.22,9,.19,6.83-2.13,3.7s-2,7.2-2,7.57-1.57,9-1.57,9l-2.68,9.89-3.51,7.66-3.78,6-.47,4.34-4.71,16.63-.55,12.56-2.22,12.74-.09,14.51-.28,9.7-.37,7.48.37,10.07.65,9.42.83,11.64,4.71,8.77,3.6,5.91,3.24,4.9,4.15,3.51,2.59,7.2.74,2.41,2.22,3.78Zm7.21-3.78-4.07,1.11-.37-2.59-2.21-7-2.59-7.76-2.59-9.61L705,519.39l-1.85-10.72-1.48-11.08V486.88l1.48-10L705,465.45l2.21-10.72,2.22-12.56,2.22-7,1.11,2.58-.37,8.13s1.47,8.5,1.47,9.61.37,10,.37,10l.37,13.3,1.48,12.93L714.25,502l.37,7.39s1.11,13.31,1.11,14.41,1.85,11.46,1.85,11.46l2.22,10.34,2.21,8.13Zm18.1-78.7-1.11,5.17-1.47,8.87-1.85,14s-1.48,7.76-1.48,9.61v7.39L729,530.1l-.37,9.61-.37,7-2.21-1.48-1.48-3-.37-4.07.37-8.86-1.48-7.76-.37-11.83L725,498.33l3.69-3.33,3.7-8.86.74-7-.37-10,1.48-13.3,1.84,8.13,2.22,9.23Zm20.45,13.42,1,4.19-1.72,6.16-.74,5.91-.49,6.16-.25,9.11L753.17,529l-1.23,5.91-2.46,2.21-3.7,2v-1.73l1.48-6.16L746,525.06l.25-6.66L748,511l3-3.2.24-5.17,1.48-5.67,1.48-8.12,1.72-5.92.25-6.89.74-1.48,1.23,3.69.24,4.19-1.72,4.19Z"/></clipPath></defs><title>couple-middle</title><g id="Layer_2" data-name="Layer 2"><g id="Layer_1-2" data-name="Layer 1"><g class="cls-2"><g class="cls-3"><image width="6000" height="4000" transform="translate(0) scale(0.61)" xlink:href="../../../../tervezet/Weboldal/6db%20k%C3%A9p%20a%20boxokhoz/P%C3%A1ros%20fot%C3%B3z%C3%A1s.jpg"/></g></g></g></g></svg>