<svg xmlns="http://www.w3.org/2000/svg" xmlns:xlink="http://www.w3.org/1999/xlink" viewBox="0 0 949.86 633.24"><defs><style>.cls-1{fill:none;}.cls-2{clip-path:url(#clip-path);}</style><clipPath id="clip-path" transform="translate(-0.29 13.77)"><path id="SVGID" class="cls-1" d="M524.77,115.62l1-5.89-1.66-6.54,1.54,1.41.64,1.8v-2.18L525,101.14l-.64-5.63-1.8-5.38L524,88.72l.26-1.41,1.53.77-.38-1.41L523.74,85l-2.43-2.31L520,80.78l-.51-1.67,1.54,1.16.76,1,.64-1.41a3.2,3.2,0,0,1-.89-1.15,6.72,6.72,0,0,1,0-1.66,36.34,36.34,0,0,1-1.8-3.85c0-.38-.25-2.94-1.28-3.58A11.4,11.4,0,0,1,515.68,67c-.13-.39-1.54-1.67-1.67-2.69s-.77-3.84-.77-3.84l.39-1.41-1.41-1.16-.51-2.43,1.79-.64.9-1.15a8.2,8.2,0,0,0-1.8-.77c-.38,0-2.94-.13-2.94-.13l-2.44-.51-1.79-2.31-.13-1.28,2.69.51,1.79-.51.52-.89-1.41-2.05-1.54-1.54-2.43-2.82-.51-1.92-2.57-1.28-1.53-1.41-2.44-1.54-2.05-2.43,1.41-.13.13-1.41-2.18.13L494,31l-1-1.41H491.6l-1-1,1.8.26-.13-1-1.41-.52-2.56-.51-.13-1.28-1.67-1.79-1.92-.52-1.73-.8.82-.33-.19-.53L482,20.61l-1-.91-1.39-.24-.77-1.05-1-1.06-1.49-1.25-1.15-1.34-1.59-1.49-1.82-1-2-1.2-1.54-.53-1.63-.43-1.2-.2L464,9.76l-1.87-1.25-1.21-.91L459.29,7l-1.54-.29-2-1.44-2.65-.72-1.82-.29-.53-.62h-1.58L448,4,446.9,4l-2.31-.29-2-.24H437.1l-2.05-.58a11.38,11.38,0,0,0-2.3-1.08c-.45,0-3-.52-3.21-.52s-2.62-.25-2.81,0-3-.11-3-.11h-4L417.89,0l-4.1.25A8.14,8.14,0,0,0,411.87,0c-.19.12-1.79,1.47-1.79,1.47l-1.67,1-3.33-.12c-.26,0-2.88.7-2.88.7l-2.5.26-2.18-.13-2.81,1.21L392.14,6.3l-1.4,1.54-1.8.9-8.51-1.35-7.69-1.54h-2.82l-2.56,1.54-3.59,2.82L359.68,13l-3.59,3.33-2.82,5.38-1.53,5.12-2.05,5.38-1,3.65V39l-1.25,3-.58,2.21V47l-1.06,2.59-1.44,3.46-2,3.94-2.31,5.19L338.74,67l-2.21,5.76-1.83,6.06-1.06,3.55-.76,3-1.73,1-.58,2.88-1.15,4.71-1,3.46-.17,3.86-.17,2.28V106l-.12,2.76-.26,2.74-1.27-.63-1.57-.51-1.82.25-1.83.71-1.41.76-1.5,1.22-1,1.12L316,116l-1,1.63-.57.93-.39.8-1.28,1.25-.89.8-1.54,1.73-1,1.86-.8,1.89-.56,2-.33,2.33-.15,2.18-.14,1.85v2.67l-.17,2.88v5.64l.1,1.9.53,2.69.52,2.52.51,1.9.41,2,.5,1.95.63,2.26.52,2.06,1,2.5.53,1.63.77,2.09,1.13,1.75,1.44,1.42,1.68,1.68-1.87,1-2.23.88-1.73.8-2,.93-2.1,1.12-1.42.77L300.1,184l-9.41,5.56-3.46,1.95-5.84,4.34L272.26,204l-4.5,5.28-.33.26-13.26,8.9-1.21.27-2.87.55-2.85,2.21-11.11,7.83-14,9.44-13,8-11.24,7.38-1.86.79-11.2,8.74-5.35,4.74-5,5.18-6.64,7-4.42,5.28-1.07,1.52-4,2.29-4.48,3.64-2.55,2.57-3.15,5.77-1.89,1.5-2.45,1.41-3,3.52-1.21,2.32-.58,1.3-3.76,4.28-.79,1.48-.56,1.32-1,1.91-2.38,2.28-1.8,2L127,326.39l-3.55-.53-3-1.12-.76,0-2.81,1.2L113,328.37l-3.42,2.07-2.17,1.09-5.15,2.52L92.06,340.3,86.82,343l-1.1.33H81.59l-6.73,1.4-5.67,1.92-8.35,3.65-5.09,2.5-6.63,3.84-7.88,6.63-9.46,6.29-2.88,2.83-3.34,4.49-1.8,5.5-.48,3.56.77,3.89s1.39,4.87,1.46,4.94,3,8.58,3,8.58l2.52,5.11L34.64,414s2.64,4.23,2.71,4.25a7.81,7.81,0,0,1,0,1.28s-1.56,1.44-1.63,1.53-1.27,1.52-1.27,1.52L33,424l-1,.26-.43.72-.77.22-.09.84-2.91,3.53-4.13,5.09s-.14.55-.19.65a4.28,4.28,0,0,1-.82.36l-.14.89-.39.57h-.6l-.43.36-.22.87L18.55,441l-.7.19-.26,1.78-.92-.39v1.18l-.81.72-.31.94-1.49,2.28L11.8,451l-3.05,4.88L6.11,460.8S4.16,463.9,4,464.09,1.38,468,1.38,468l-.12.94L0,469.45V598.94l8.2,3.84,7.49,2.79,9.08,3.55,8.11,4.56,6.73,5,1.15.76H549.1l-1.34-10.93.67-4.42.67-4L547.76,598l6.53-1.92,10.57-2.12,11.33-3.07L587,587l10.95-4.8,10-4.62,9.61-5L628.06,567l7.88-4.23,3.84-1.92L644.2,558l3.85-1.35h1.53l1.35,1.92.77,3.46a7.13,7.13,0,0,1,0,2.31c-.29.76.52,1.92.67,2.59a5.18,5.18,0,0,0,.77,1.73l.67,2.31,2.3,6.62,2.5,3.72,2.31,4.16,2.3,3.27,2.12,2.49,4,3.27,3.46,3.84,3.07,4,4.23,4.42,3.46,2.11v2.3l.83,4.1,1.15,4.15H889.86l-7.24-18.56-4.87-11.66L876,580.86l-.7-2.24.38-2,.1-2.11-.48-1.25-.58-.48.48-2.26s1-1.68,1.11-1.92,1.2-2.83,1.2-2.83-.14-3.51-.19-3.75-.67-4.51-.67-4.51l.91-13,.48-4.8,2.21-3.17,1.05-3.08.68-3.17-.53-2.69-1-2.93-.87-1.49.53-4.32.58-6.39.29-5.62-.08-4s.15-3.94.12-4-.09-3-.09-3a9.65,9.65,0,0,1,1-.53l1.9,0a15.72,15.72,0,0,0,1.42.91c.21.07,1.39.53,1.68.6s2.25,0,2.33,0,3.25-1.69,3.25-1.69l1.69-2.47.61-2.82v-3.17l.55-8.54V470.3l-.55-13.13-.48-3.84s-.22-3-.22-3.14.06-2.21.06-2.21l.45-1.38.21-5.63v-4.28l.53-9.14-.61-5.38-.39-2.88,2.12,2.18.89,4.1,1.6,2.88.77.64v-2.24l-.38-1.16,1.28.65s2,2.43,2.05,2.62,1.79,2.56,1.79,2.56l.71.71v-1.67l-.58-2L902.79,426a13.62,13.62,0,0,1-1.21-1.73c0-.2,1.28-1.09,1.28-1.09s-.26-2.12-.71-2.5a17,17,0,0,1-1.6-2.82s-1.66-3.84-1.79-4.42-1.54-4-1.54-4l-1-2.56-1-1.35.06-2.82-.45-2-1.15-1-.7-1.61-.2-2.17a43.9,43.9,0,0,0-1.21-4.23c-.2-.13-2.18-4.8-2.18-4.8l-2.82-7.11-4.23-8.84-2.17-5.12-1.6-4.74-5-10.76-2-1.66-2.31-3.08-1.79-2.24v-2.75l-.39-4.17-4-5.12-2.94-4-3.33-7-2.69-7.05-2.82-5.63-4.23-6.79s-2.3-3.2-2.43-3.59-2.05-3.71-2.05-3.71l-.64-3.84-2.43-2.57-1.67-4.48-1-5,.12-5.38,1.54-4.36v-4.48l-.38-3.33.51-4.23,1.54-3.07-1.16-1.54.39-4.35,1.41-4.61,1.28-4.36,1-4.35.77-5.64,1.92-11,.51-5.13.26-5-1.28-4.87-.64-3.2-1-1.79.51-3.21.51-5.37,1.41-10.25-.51-7.05-.9-7,.64-4.23-1.15-8.45-1.16-10-3.58-12.29-3.2-8.33-2.82-7.43L829,105.63,825.75,102l-3.84-3.33-3.07-1.92-4.36-3.07-3.71-3.21-2.43-1.41-2.57-1-2.17-1.79-3.21.25-5.25-3.33L790,81l-5.25-1.67-5.38-.51-3.33.25-2.69-.76-3.33-1-3.59-1.15-3.71-.64-3.84-.13-3.33-1-3.08-1a14.54,14.54,0,0,1-2.3.9c-.39,0-5.64-.39-5.64-.39l-4.86-.38-6.15.13-4.23.13-6.15-.39-6.53.9-7.94,2.43-5.38,2.56-3.46,3-4.1,3.58-4.22,3.85L687,94.36,682.18,100l-4,5.25s-3.08,4.61-3.46,5.13-4,6.4-4,6.4l-3.33,6.15L666,128.3l-1.28,6.53-.53,3.79-.14,1.59-2.21,3.55-2.21,4.9-1.54,5.57-1.25,4.9-1.34,3.46L654,165.18l-.1,3.08.61,4,1.16,3.4.51,1.79-.39,2-1.41,2.82-1.28,2-1.66,2.43-.77,1.54-.06,1.09-.84,1.08-.7,1.35-.7,1.73L647,196.37l-1.22,3.84L645,203.8l-.67,3.36-1.54,3.65-.57,3.56-.77,3.93v4.13l.86,3.37,1.54,3.07,2.3,3.27,1.73,3.55,2.4,10.28,2.21,7.3,1.83,5.76,1.25,4.33-.77,5.44-1,5.51-.89,6.14v4.1l-1.92,2.18v2.82l.77,4.48L650,299l-2.43,7.17-1.16,5.38-.89,5.12-1.41,6.4L643,329.51l-1.54,6.27-1.67,3.85-2.94,4-2.44,3.84L630.69,346l-4.35-1.15-2.18-1.67-3.46-.38-3-.13a20.44,20.44,0,0,0-2.56-1.41l-1.92-.51,1.54,2.18,1.28,1.28-1.79.13-1.8-.52-.89.39,1.28,1.28-2.69-.77L606,344l-7.17.13-4.61.51-3.59,1L586,347.18l-2,.52-3.84-6.92-3.46-9.61-4.23-11-5.63-12.68L560,292l-8.84-13.06L546,272.64,539.24,265l-4.61-4.1.64-5-.38-6.27-1.41-4.49-1.79-1.92-1.41-1.53-2.18-4.74-2.69-4.1-1-3.84-1.29-3.21-2.81-.76h-3.46l-3.59.25-3.2-1.53L507.61,220l-3.33-3.46-3.59-3.33L497.75,211l-2.31-1.54,1.92-.51,1-1.92,1.28-3.46,1.28-3,1.15-3.59,1.41-2.3.77-4.23.77-4.61,1.15-4.1,3.07-5.63,3.08-6.66,1.4-5.38,1-4.1.51-4,.39-1.67,2.3-1,.39-2.69,1.15-1.79,1.15-2.56.26-1.93-.52-2,.39-1.41.64,1.41.64-2.57.38-2.94.52-5.13.89-5.37"/></clipPath></defs><title>family-middle_1</title><g id="Layer_2" data-name="Layer 2"><g id="Layer_1-2" data-name="Layer 1"><g class="cls-2"><image width="6000" height="4000" transform="scale(0.16)" xlink:href="../../../../tervezet/Weboldal/6db%20k%C3%A9p%20a%20boxokhoz/csal%C3%A1di.jpg"/></g></g></g></svg>