<svg xmlns="http://www.w3.org/2000/svg" xmlns:xlink="http://www.w3.org/1999/xlink" viewBox="0 0 1179.07 794.75"><defs><style>.cls-1{fill:none;}.cls-2{opacity:0.81;}.cls-3{clip-path:url(#clip-path);}.cls-4{opacity:0.78;}.cls-5{fill:url(#linear-gradient);}</style><clipPath id="clip-path" transform="translate(43.53)"><polygon id="SVGID" class="cls-1" points="4.29 10.2 5.01 13.3 6.92 15.61 9.31 17.99 13.04 21.09 10.34 24.04 6.44 28.33 2.78 32.15 0 35.57 1.83 40.82 4.77 44.96 9.23 48.22 11.37 49.09 10.74 52.03 10.42 53.94 12.81 55.38 14.48 56.81 16.39 57.76 15.83 60.94 15.67 65.42 16.92 69.95 18.71 72.64 19.73 74.72 19.25 78.06 17.76 81.94 15.43 86.48 15.67 90.35 16.03 93.75 17.52 96.5 18.59 98.05 17.82 101.27 18.18 105.51 22.47 109.08 27 110.88 29.27 109.8 31.95 112.13 31.54 119.11 30.34 127.7 29.27 135.21 28.67 142.67 29.99 151.62 31.42 161.16 32.49 169.52 34.64 177.75 37.86 184.87 43.75 192.5 50.59 201.41 58.38 210.48 67.13 217.96 77.31 228.62 90.04 239.11 101.97 248.34 113.11 256.3 122.65 262.66 134.42 269.66 139.04 272.52 130.45 293.52 124.24 311.18 118.2 328.52 110.24 347.61 105.31 360.81 99.27 380.7 92.74 401.06 87.65 419.51 82.72 440.35 69.2 487.12 55.84 539.3 47.01 571.98 947.94 571.99 916.78 509.39 882.74 448.31 866.59 421.62 858.48 414.58 865.24 405.35 870.81 390.24 874.63 380.86 878.29 371.47 880.51 364.31 879.24 359.22 886.88 354.61 890.85 347.77 894.67 341.56 898.81 332.49 900.72 322.79 901.67 318.34 906.76 312.13 909.62 301.79 912.17 292.41 912.81 281.43 913.28 271.73 913.12 258.84 913.28 256.3 912.17 254.23 915.35 248.98 920.6 241.02 924.58 234.66 925.37 224.16 924.42 214.46 923.15 201.89 919.97 197.75 915.67 194.41 912.97 188.53 911.06 182 908.35 178.66 907.24 165.3 905.01 156.55 903.1 149.07 902.47 142.23 902.63 136.03 900.72 132.05 898.49 129.51 893.88 125.53 887.03 124.26 880.2 124.42 878.76 124.26 886.24 113.92 897.38 99.92 906.44 84.33 915.99 70.01 918.06 66.35 916.78 59.99 912.97 54.9 909.31 53.15 905.01 48.06 896.26 36.6 891.33 24.67 890.06 21.65 894.51 16.24 895.31 11.79 893.91 8.98 3.66 8.92 4.29 10.2"/></clipPath><linearGradient id="linear-gradient" x1="493.35" x2="493.35" y2="73.83" gradientUnits="userSpaceOnUse"><stop offset="0" stop-color="#ffffd8"/><stop offset="0.13" stop-color="#ffffd9" stop-opacity="0.98"/><stop offset="0.26" stop-color="#ffffda" stop-opacity="0.94"/><stop offset="0.38" stop-color="#ffd" stop-opacity="0.86"/><stop offset="0.5" stop-color="#ffffe2" stop-opacity="0.75"/><stop offset="0.63" stop-color="#ffffe7" stop-opacity="0.61"/><stop offset="0.75" stop-color="#ffe" stop-opacity="0.44"/><stop offset="0.87" stop-color="#fffff6" stop-opacity="0.24"/><stop offset="0.99" stop-color="#fff" stop-opacity="0.01"/><stop offset="1" stop-color="#fff" stop-opacity="0"/></linearGradient></defs><title>mum-middle</title><g id="Layer_2" data-name="Layer 2"><g id="Layer_1-2" data-name="Layer 1"><g class="cls-2"><g class="cls-3"><image class="cls-4" width="6000" height="4000" transform="translate(0 8.71) scale(0.2)" xlink:href="../../../../tervezet/Weboldal/6db%20k%C3%A9p%20a%20boxokhoz/Kismama%20fot%C3%B3z%C3%A1s.jpg"/></g></g><rect class="cls-5" x="43.81" width="899.09" height="73.83"/></g></g></svg>