<svg xmlns="http://www.w3.org/2000/svg" viewBox="0 0 33 33"><defs><style>.cls-1{fill:#666;}.cls-2{fill:#dedede;}</style></defs><title>phone-icon</title><g id="Layer_2" data-name="Layer 2"><g id="Layer_1-2" data-name="Layer 1"><rect class="cls-1" width="33" height="33" rx="16.5"/><path class="cls-2" d="M12.82,9.21a18.49,18.49,0,0,0,.81,1.68,1.42,1.42,0,0,1-.21,1.72l-.63.64a2.13,2.13,0,0,0-.52,2.2A9,9,0,0,0,18,21.18a2.1,2.1,0,0,0,2.17-.51l.62-.62a1.42,1.42,0,0,1,1.81-.15c.61.43,1.21.69,1.82,1.06a1.41,1.41,0,0,1,.27,2.2,7,7,0,0,1-4.63,2c-3.9.29-5.9-1.43-7.8-3.27S7.5,17.62,8,13.8a8.39,8.39,0,0,1,2.55-5A1.41,1.41,0,0,1,12.82,9.21Z"/></g></g></svg>